<svg width="105" height="40" viewBox="0 0 105 40" fill="none" xmlns="http://www.w3.org/2000/svg">
<rect width="105" height="40" fill="#425893"/>
<path d="M47.8108 17.2607V18.3301H44.0608V20.4199H46.8977V21.4893H44.0608V25.0195H42.6985V17.2607H47.8108ZM48.3186 20.9131C48.6018 19.904 49.3586 19.3994 50.5891 19.3994C52.0084 19.3994 52.718 20.0065 52.718 21.2207V23.3984C52.718 23.929 52.7473 24.4694 52.8059 25.0195H51.6487C51.6129 24.8145 51.5819 24.5752 51.5559 24.3018C51.162 24.8682 50.5859 25.1514 49.8274 25.1514C49.2838 25.1514 48.8573 24.9854 48.5481 24.6533C48.2747 24.3604 48.1379 23.9827 48.1379 23.5205C48.1379 22.5439 48.7353 21.9401 49.9299 21.709C50.3726 21.6243 50.8951 21.5723 51.4973 21.5527V21.2402C51.4973 20.8757 51.4111 20.6169 51.2385 20.4639C51.0888 20.3337 50.8577 20.2686 50.5452 20.2686C50.2587 20.2686 50.0211 20.3613 49.8323 20.5469C49.6597 20.7161 49.5474 20.944 49.4954 21.2305L48.3186 20.9131ZM51.4973 22.3291C51.0774 22.3389 50.6575 22.3926 50.2375 22.4902C49.6386 22.6335 49.3391 22.9443 49.3391 23.4229C49.3391 23.9762 49.6321 24.2529 50.218 24.2529C50.7519 24.2529 51.1783 23.9518 51.4973 23.3496V22.3291ZM58.6799 21.1621L57.4592 21.4404C57.342 20.6982 57.0181 20.3271 56.4875 20.3271C55.6672 20.3271 55.2571 20.9782 55.2571 22.2803C55.2571 23.5889 55.6672 24.2432 56.4875 24.2432C57.067 24.2432 57.4169 23.859 57.5374 23.0908L58.7092 23.4131C58.566 24.0186 58.2779 24.471 57.845 24.7705C57.4706 25.0309 57.0084 25.1611 56.4583 25.1611C55.6249 25.1611 54.9869 24.8747 54.5442 24.3018C54.1601 23.8005 53.968 23.1331 53.968 22.2998C53.968 21.346 54.2219 20.6087 54.7297 20.0879C55.1692 19.6354 55.7454 19.4092 56.4583 19.4092C57.0898 19.4092 57.6025 19.5817 57.9963 19.9268C58.3381 20.2262 58.566 20.638 58.6799 21.1621ZM64.427 22.5488H60.7161C60.7226 23.1217 60.856 23.5612 61.1165 23.8672C61.3541 24.1439 61.6812 24.2822 62.0979 24.2822C62.6871 24.2822 63.0728 23.9339 63.2551 23.2373L64.3977 23.5693C64.0527 24.6305 63.2812 25.1611 62.0833 25.1611C61.2076 25.1611 60.5419 24.8779 60.0862 24.3115C59.6858 23.8167 59.4856 23.1494 59.4856 22.3096C59.4856 21.359 59.746 20.6201 60.2668 20.0928C60.7128 19.637 61.2825 19.4092 61.9758 19.4092C62.7506 19.4092 63.3625 19.6908 63.8118 20.2539C64.2219 20.765 64.427 21.4437 64.427 22.29V22.5488ZM63.1965 21.7188C63.1347 20.7585 62.7343 20.2783 61.9954 20.2783C61.595 20.2783 61.2841 20.4248 61.0627 20.7178C60.8739 20.9684 60.7649 21.3021 60.7356 21.7188H63.1965ZM66.9465 17.1191V20.3223C67.1321 20.0195 67.3713 19.7868 67.6643 19.624C67.915 19.4873 68.1786 19.4189 68.4553 19.4189C69.1194 19.4189 69.6386 19.6875 70.0129 20.2246C70.3612 20.7259 70.5354 21.4014 70.5354 22.251C70.5354 23.2145 70.2945 23.9665 69.8127 24.5068C69.4254 24.943 68.9501 25.1611 68.387 25.1611C67.6838 25.1611 67.1711 24.8307 66.8489 24.1699L66.595 25.0195H65.6965V17.1191H66.9465ZM66.9465 21.3428V23.2715C67.2102 23.8835 67.5797 24.1895 68.0549 24.1895C68.4325 24.1895 68.7271 24.0137 68.9387 23.6621C69.1438 23.3268 69.2463 22.863 69.2463 22.2705C69.2463 21.6097 69.1243 21.1165 68.8801 20.791C68.6881 20.5306 68.4374 20.4004 68.1282 20.4004C67.6204 20.4004 67.2265 20.7145 66.9465 21.3428ZM73.9875 19.4092C74.7883 19.4092 75.415 19.6973 75.8674 20.2734C76.2678 20.7845 76.468 21.4502 76.468 22.2705C76.468 23.2178 76.2109 23.9551 75.6965 24.4824C75.2538 24.9349 74.6809 25.1611 73.9778 25.1611C73.1705 25.1611 72.5422 24.873 72.093 24.2969C71.6959 23.7891 71.4973 23.1234 71.4973 22.2998C71.4973 21.3558 71.7561 20.6185 72.2737 20.0879C72.7196 19.6354 73.2909 19.4092 73.9875 19.4092ZM73.9875 20.3174C73.1868 20.3174 72.7864 20.9717 72.7864 22.2803C72.7864 23.5954 73.1835 24.2529 73.9778 24.2529C74.7786 24.2529 75.179 23.5954 75.179 22.2803C75.179 20.9717 74.7818 20.3174 73.9875 20.3174ZM79.9153 19.4092C80.7161 19.4092 81.3427 19.6973 81.7952 20.2734C82.1956 20.7845 82.3958 21.4502 82.3958 22.2705C82.3958 23.2178 82.1386 23.9551 81.6243 24.4824C81.1816 24.9349 80.6086 25.1611 79.9055 25.1611C79.0982 25.1611 78.47 24.873 78.0208 24.2969C77.6236 23.7891 77.425 23.1234 77.425 22.2998C77.425 21.3558 77.6838 20.6185 78.2014 20.0879C78.6474 19.6354 79.2187 19.4092 79.9153 19.4092ZM79.9153 20.3174C79.1145 20.3174 78.7141 20.9717 78.7141 22.2803C78.7141 23.5954 79.1112 24.2529 79.9055 24.2529C80.7063 24.2529 81.1067 23.5954 81.1067 22.2803C81.1067 20.9717 80.7096 20.3174 79.9153 20.3174ZM88.3137 19.5312L86.4827 21.582L88.4163 25.0195H87.0344L85.677 22.4316L84.925 23.2617V25.0195H83.6848V17.1191H84.925V21.9287L86.9026 19.5312H88.3137Z" fill="white"/>
<path d="M27.4463 21.7403L28.0256 17.963H24.4015V15.5117C24.4015 14.4783 24.9077 13.4711 26.531 13.4711H28.1788V10.2552C28.1788 10.2552 26.6833 10 25.2537 10C22.2688 10 20.3179 11.809 20.3179 15.0841V17.963H17V21.7403H20.3179V30.8716C21.058 30.9028 23.7123 30.8716 24.4015 30.8716V21.7403H27.4463Z" fill="white"/>
</svg>
