<svg width="192" height="52" viewBox="0 0 192 52" fill="none" xmlns="http://www.w3.org/2000/svg">
<path d="M31.7518 35.1511C31.1713 33.8495 29.6695 33.1479 27.8838 33.3429C26.1813 33.5291 24.7225 34.2503 23.4924 35.4177C21.9574 36.8751 21.7296 38.1585 22.6094 40.0551C21.1655 40.6818 19.9663 40.2272 19.0042 38.7698C18.1202 37.4317 17.2923 36.0314 16.2386 34.8354C15.6512 34.1684 15.0286 33.5819 12.5568 32.342C12.4314 32.1456 12.3004 31.9501 12.1583 31.7574C11.6012 31.0006 11.0213 30.242 10.5989 29.4099C9.67235 27.584 10.1967 25.9788 12.068 25.1907C13.1339 24.7421 14.3449 24.6481 15.4674 24.3165C15.9818 24.1645 16.675 23.9475 16.8836 23.549C17.6862 22.0168 18.3256 20.3985 19.1408 18.5515C13.9566 18.4369 10.5157 20.4031 8.89174 25.338C7.74678 22.1154 8.54613 19.1277 11.0138 16.9883C13.6175 14.7307 16.7966 13.936 20.0982 13.43C20.6786 13.3406 21.5341 13.132 21.7273 12.7251C23.6626 8.64807 25.4853 4.51814 27.381 0.312922C26.9591 0.182898 26.7468 0.0692432 26.5288 0.0566166C20.8536 -0.26798 15.4893 0.776892 10.6508 3.87223C2.09725 9.34402 0.30031 18.4785 6.21736 26.728C7.54521 28.5788 9.23036 30.1812 10.8108 31.8406C12.5325 33.6483 12.7813 35.464 11.4455 37.2745C9.08586 35.4411 7.2253 35.3471 4.70339 37.0182C2.68239 38.3573 1.21095 40.1575 0.406023 42.4694C-0.438704 44.8941 0.0570849 47.2111 1.68428 48.4361C3.42092 49.7443 5.59154 49.6582 7.75102 48.1031C10.9085 45.8286 12.7186 42.6519 13.6522 38.9424C13.8402 38.1955 13.9262 37.4672 13.9206 36.7568L13.9445 36.8232C14.7583 36.6034 15.5876 36.2409 17.3798 38.2436C17.8153 38.7305 18.3073 39.1767 18.7357 39.6753C19.9654 41.107 21.5107 41.86 23.4002 41.8212C26.0761 41.7669 28.526 41.0312 30.5722 39.2352C31.9716 38.007 32.3706 36.5402 31.7518 35.1511Z" fill="#CB0000"/>
<path d="M50.4196 8.97554C50.2596 8.51554 50.1396 8.17554 49.9396 7.67554C49.7596 7.23554 49.5796 6.83554 49.2396 6.39554C50.0396 6.25554 50.8596 6.17554 51.6596 6.17554C51.9396 6.17554 52.0996 6.33554 52.0996 6.53554C52.0996 6.65554 52.0596 6.79554 52.0596 6.91554C52.0596 7.09554 52.0996 7.29554 52.1396 7.51554C52.2796 8.03554 52.3396 8.21554 52.4596 8.55554C54.0196 8.25554 55.1196 7.95554 56.5396 7.49554C56.7196 7.41554 56.8196 7.43554 56.8796 7.59554C56.9996 7.97554 57.1396 8.53554 57.2196 8.93554C57.2596 9.13554 57.1196 9.25554 56.9796 9.29554C55.6396 9.71554 54.4196 10.0155 53.0596 10.3155C53.2396 10.8155 53.4996 11.4355 53.7596 11.9955C55.3796 11.6555 56.4396 11.3155 57.3996 10.9555C57.5996 10.8555 57.6996 10.8955 57.7596 11.0755C57.9396 11.5355 58.0196 11.9155 58.1196 12.3955C58.1596 12.5755 58.1596 12.6755 57.9596 12.7555C56.9596 13.1355 55.6996 13.4955 54.5796 13.7355C55.4396 15.1755 56.2196 16.2955 57.1996 17.1955C57.3996 17.3755 57.3996 17.4555 57.2996 17.6755C57.0796 18.1355 56.7996 18.5355 56.4796 18.9155C56.3596 19.0555 56.2796 19.1155 56.1596 19.1155C56.0796 19.1155 55.9996 19.0755 55.8796 18.9955C55.5596 18.7355 55.1596 18.5555 54.6996 18.3555C53.6796 17.9155 52.3596 17.7155 50.9396 17.7155C49.0596 17.7155 47.9596 18.2955 47.9596 19.2355C47.9596 20.5355 49.6596 20.9555 52.7196 20.9555C53.4596 20.9555 54.1996 20.8755 54.9196 20.8355C55.1196 20.8355 55.1796 20.9355 55.1596 21.0955C55.0796 21.5955 54.9396 22.3755 54.7596 22.9155C54.6996 23.1155 54.6196 23.1955 54.3396 23.2155C53.8796 23.2555 53.3996 23.2755 52.8996 23.2755C48.2996 23.2755 45.8596 21.9755 45.8596 19.5155C45.8596 17.3755 47.6996 16.0355 50.8196 16.0355C52.2796 16.0355 53.4596 16.1955 54.2596 16.5355C53.7996 15.9955 53.1396 15.0355 52.5996 14.1755C50.5396 14.4955 48.5796 14.7355 47.1196 14.7755C46.8996 14.7755 46.8196 14.6955 46.7596 14.4955C46.6396 14.0955 46.4596 13.4155 46.3996 12.8555C48.3996 12.8155 49.9996 12.6555 51.7796 12.3555C51.5796 11.9355 51.2796 11.2555 51.0196 10.6955C49.1796 10.9755 47.6996 11.1555 46.1596 11.1755C45.9196 11.1755 45.7996 11.0955 45.7596 10.8955C45.6996 10.6755 45.5596 9.93554 45.4396 9.29554C47.3996 9.31554 48.9996 9.15554 50.4196 8.97554ZM70.7796 9.75554C71.5596 9.61554 72.6396 9.35554 73.6196 9.07554C73.8396 9.01554 73.9196 9.11554 73.9396 9.27554C73.9996 9.71554 74.0596 10.2955 74.0796 10.7155C74.0996 10.9755 74.0396 11.0355 73.7796 11.0955C72.5396 11.4355 71.5196 11.6555 70.2996 11.8555C68.9396 16.2955 67.9196 19.3555 66.6396 22.6755C66.5396 22.9555 66.4196 22.9355 66.1996 22.8755C65.9996 22.7955 65.0196 22.3755 64.5996 22.1355C64.4396 22.0355 64.3796 21.8755 64.4396 21.7355C65.9596 18.2355 66.9196 15.5955 67.8996 12.2555C66.7396 12.3755 65.3396 12.4755 64.3996 12.4755C64.0996 12.4755 64.0196 12.4155 63.9796 12.1555C63.8996 11.7355 63.7996 11.0555 63.6996 10.3355C64.1196 10.3955 64.3596 10.3955 65.1796 10.3955C66.1796 10.3955 67.2596 10.3355 68.4196 10.1955C68.6196 9.39554 68.7796 8.51554 68.9196 7.69554C68.9996 7.09554 69.0396 6.49554 69.0396 5.85554C70.0996 6.01554 70.9196 6.15554 71.5596 6.41554C71.7196 6.47554 71.7796 6.61554 71.7796 6.73554C71.7796 6.81554 71.7796 6.91554 71.6796 7.05554C71.5196 7.33554 71.3596 7.53554 71.2596 7.85554C71.0596 8.57554 70.9196 9.25554 70.7796 9.75554ZM71.1396 18.9355C71.7596 18.7755 72.5796 18.6355 72.8396 18.6355C73.0396 18.6355 73.1196 18.7155 73.1396 18.9155C73.2996 20.3755 74.2796 20.7955 76.1996 20.7955C77.3196 20.7955 78.7596 20.6155 79.5596 20.5155C79.7196 20.4955 79.7796 20.5355 79.7996 20.6955C79.8796 21.2155 79.9596 21.8955 79.9596 22.4355C79.9796 22.6755 79.9596 22.7355 79.6396 22.7555C78.9596 22.8555 77.6596 22.9755 76.9196 22.9755C74.2996 22.9755 72.9396 22.6155 72.0396 21.6755C71.3996 21.0355 71.1796 20.0955 71.1396 18.9355ZM72.6996 15.1555C72.6596 14.4555 72.6196 13.7355 72.6196 13.3355C72.6196 13.0555 72.6796 12.9955 72.9796 12.9355C74.2396 12.6755 75.7196 12.4755 76.8796 12.4755C77.6596 12.4755 78.5196 12.5555 79.2196 12.6755C79.4996 12.7155 79.5596 12.7355 79.5596 12.9755C79.5996 13.4755 79.5996 14.0355 79.5796 14.5755C79.5796 14.9155 79.4796 14.9955 79.1996 14.9355C78.4996 14.7955 77.5796 14.6955 76.7196 14.6955C75.5196 14.6955 73.9996 14.8955 72.6996 15.1555ZM87.8196 9.39554V7.61554C87.8196 7.09554 87.7596 6.51554 87.5796 5.97554C88.5996 6.05554 89.3996 6.15554 89.9596 6.31554C90.2196 6.37554 90.3796 6.49554 90.3796 6.65554C90.3796 6.77554 90.3396 6.89554 90.2196 7.11554C90.1196 7.31554 90.0796 7.51554 90.0596 7.79554C90.0396 8.17554 90.0396 8.49554 90.0196 9.13554C90.9396 8.99554 91.7996 8.83554 92.7796 8.59554C93.1196 8.51554 93.1396 8.57554 93.1596 8.83554C93.2196 9.33554 93.2596 9.79554 93.2596 10.2755C93.2596 10.5155 93.1796 10.5555 93.0196 10.5955C92.1196 10.8155 91.1596 10.9755 89.9196 11.1355C89.8596 12.5755 89.8396 13.3355 89.7996 14.7355C89.9196 15.0955 89.9796 15.5155 89.9796 16.0755C89.9796 17.1155 89.6996 18.0355 89.0196 18.6755C88.7996 19.0955 88.7396 19.4955 88.7396 19.8755C88.7396 20.6555 89.1396 21.1755 91.3596 21.1755C94.3996 21.1755 95.9596 20.4155 95.9596 18.8155C95.9596 18.0355 95.8796 17.2955 95.5396 16.1755C96.4196 16.5755 97.0196 16.6755 97.5596 16.7555C97.7396 16.7755 97.9196 16.9355 97.9596 17.1155C98.1196 17.6555 98.2596 18.3955 98.2596 19.3155C98.2596 21.8355 96.2396 23.2555 91.6396 23.2555C88.0996 23.2555 86.5796 22.3555 86.5796 20.4155C86.5796 19.8355 86.6596 19.4755 86.7796 19.0955C86.6996 19.1155 86.5796 19.1155 86.4596 19.1155C85.0796 19.1155 84.0596 17.8155 84.0596 16.2355C84.0596 14.4555 85.2396 13.0955 86.7196 13.0955C87.1996 13.0955 87.4996 13.1555 87.7796 13.2555C87.7996 12.5955 87.8196 11.9755 87.8196 11.3155C86.5596 11.3755 85.4596 11.3755 84.4796 11.3555C84.2996 11.3555 84.2396 11.2755 84.2196 11.0555C84.1596 10.6555 84.0996 10.0755 84.0396 9.37554C85.2996 9.47554 86.2596 9.45554 87.8196 9.39554ZM86.8796 14.7355C86.1596 14.7355 85.7796 15.2955 85.7796 16.0955C85.7796 16.9355 86.1996 17.4355 86.9396 17.4155C87.5596 17.3955 87.9796 16.8355 87.9596 15.9555C87.9596 15.2155 87.5596 14.7355 86.8796 14.7355ZM95.2596 11.2555C95.7596 10.6755 96.2596 10.1355 96.5396 9.85554C96.6996 9.69554 96.7796 9.69554 96.9596 9.77554C98.3596 10.3955 99.8796 11.5755 100.74 12.5155C100.82 12.5955 100.84 12.6555 100.84 12.7155C100.84 12.7755 100.8 12.8555 100.74 12.9355C100.38 13.4555 99.9996 13.9155 99.5996 14.3155C99.5196 14.3955 99.4596 14.4355 99.3796 14.4355C99.3196 14.4355 99.2396 14.3755 99.1596 14.2755C98.2396 13.1755 96.8796 12.0555 95.2596 11.2555ZM107.92 7.53554C108.4 6.81554 108.78 6.29554 109.1 5.97554C109.2 5.87554 109.32 5.81554 109.48 5.87554C110.96 6.45554 112.2 7.21554 113.4 8.25554C113.5 8.33554 113.54 8.39554 113.54 8.47554C113.54 8.53554 113.5 8.61554 113.44 8.71554C113.18 9.13554 112.76 9.71554 112.42 10.1155C112.34 10.2155 112.26 10.2755 112.2 10.2755C112.12 10.2755 112.06 10.2355 111.96 10.1355C110.84 9.15554 109.5 8.23554 107.92 7.53554ZM106.52 10.3155C107.3 10.5355 108.14 10.7755 108.6 11.0355C108.82 11.1355 108.92 11.2555 108.92 11.4155C108.92 11.5155 108.88 11.6155 108.82 11.7155C108.64 12.0355 108.5 12.3955 108.42 12.7755C108.22 13.7955 108.02 15.2755 107.94 16.4155C109.78 14.5555 112.18 13.2555 114.62 13.2555C117.54 13.2555 119.28 14.9555 119.28 17.5355C119.28 19.7155 117.98 21.1555 116.26 22.0155C114.92 22.6955 112.86 23.1755 111.14 23.3955C110.7 23.4555 110.52 23.4355 110.34 23.1355C109.96 22.4555 109.6 21.9155 108.98 21.4355C111.22 21.2955 113.14 20.9155 114.48 20.3155C116.1 19.6155 116.84 18.5755 116.84 17.2955C116.84 16.2155 116.16 15.2355 114.44 15.2355C112.68 15.2355 110.56 16.3755 108.68 18.2755C108.32 18.6355 108.06 18.9755 107.82 19.3755C107.7 19.5755 107.62 19.5755 107.36 19.5155C106.9 19.3555 106.42 19.1755 106 18.9755C105.8 18.8955 105.72 18.8555 105.72 18.5755C105.84 16.2555 106.1 13.8955 106.34 12.1155C106.42 11.5155 106.52 10.9955 106.52 10.3155ZM46.5146 34.9955C46.6946 34.5605 47.0246 33.7955 47.1446 33.5555C47.2646 33.3155 47.3396 33.3155 47.5496 33.3605C49.1396 33.6605 51.4046 34.2755 52.8896 34.9355C53.1296 35.0405 53.1596 35.1155 53.0696 35.3105C52.9646 35.6705 52.6946 36.2855 52.5446 36.6155C52.4696 36.7955 52.3346 36.7955 52.1846 36.7205C50.4296 35.9255 48.4346 35.3405 46.5146 34.9955ZM45.5096 38.8955C45.7496 38.2955 46.0046 37.7405 46.1546 37.4705C46.2296 37.3055 46.3196 37.2605 46.5446 37.3205C48.1346 37.6655 49.8596 38.1905 51.1196 38.7755C51.3596 38.8805 51.3896 38.9855 51.3146 39.2105C51.2246 39.4955 50.9696 40.0805 50.8196 40.3655C50.7446 40.5005 50.6846 40.5605 50.6096 40.5605C50.5496 40.5605 50.4896 40.5455 50.4146 40.5005C48.8096 39.7355 47.2196 39.2705 45.5096 38.8955ZM45.2696 43.3505C45.4646 42.8855 45.7646 42.2855 45.9596 41.9405C46.0346 41.8055 46.1246 41.7155 46.3796 41.7605C48.6596 42.1055 51.1646 42.9305 53.5646 44.1005C53.7296 44.1755 53.8196 44.2955 53.7146 44.5055C53.5346 44.9405 53.3246 45.3605 53.1146 45.7355C53.0396 45.8555 52.9796 45.9155 52.8896 45.9155C52.8296 45.9155 52.7546 45.8855 52.6796 45.8405C50.2496 44.6105 47.8646 43.8455 45.2696 43.3505ZM66.7346 43.3205H67.4396C68.0396 43.3205 68.6996 43.3055 69.2696 43.3055C69.5246 43.2905 69.5846 43.3355 69.5996 43.5755C69.6146 43.8605 69.6146 44.2355 69.5996 44.5205C69.5846 44.8055 69.5396 44.8205 69.3146 44.8205C68.6396 44.8205 67.9196 44.8055 67.2296 44.8055H61.7096C61.0946 44.8055 60.5096 44.8055 59.7746 44.8355C59.6096 44.8355 59.5496 44.7605 59.5196 44.5355C59.4596 44.2205 59.4446 43.7405 59.4446 43.2755C60.2996 43.3355 60.8546 43.3355 61.6046 43.3355H65.0846L65.5946 39.6905H63.1796C62.5946 39.6905 61.9196 39.7205 61.5296 39.7355C61.3496 39.7505 61.2896 39.7055 61.2596 39.4505C61.2146 39.1355 61.1846 38.6555 61.1546 38.1605C62.1596 38.2055 62.6096 38.2355 63.2396 38.2355H65.3096C65.8496 38.2355 65.9846 38.1905 66.1946 38.1005C66.2546 38.0555 66.3146 38.0405 66.3596 38.0405C66.4346 38.0405 66.5096 38.0855 66.5846 38.1305C66.8546 38.3255 67.2596 38.6555 67.4996 38.9555C67.5896 39.0455 67.6346 39.1355 67.6346 39.2255C67.6346 39.3155 67.5896 39.4055 67.4996 39.4955C67.3046 39.7055 67.2596 39.8705 67.1996 40.2455L66.7346 43.3205ZM81.7496 40.6205H76.3496C74.8646 40.6205 74.2946 40.8005 74.1446 40.8005C73.9646 40.8005 73.8446 40.7105 73.7996 40.4855C73.7246 40.1405 73.6346 39.4355 73.5746 38.6705C74.5496 38.8205 75.2996 38.8505 76.8146 38.8505H81.6446C82.7846 38.8505 83.9396 38.8205 85.0946 38.8055C85.3196 38.7905 85.3646 38.8355 85.3646 39.0155C85.3946 39.4655 85.3946 39.9755 85.3646 40.4255C85.3646 40.6055 85.3046 40.6655 85.0946 40.6505C83.9696 40.6355 82.8596 40.6205 81.7496 40.6205ZM88.4846 38.8805C88.8596 38.2805 89.0996 37.8455 89.2796 37.6055C89.3546 37.5005 89.4296 37.4255 89.5646 37.4555C90.6896 37.8305 91.5896 38.3105 92.4446 38.9255C92.5496 39.0005 92.6096 39.0605 92.6096 39.1505C92.6096 39.1955 92.5796 39.2555 92.5496 39.3155C92.3846 39.7205 92.1296 40.1105 91.8896 40.4555C91.8146 40.5455 91.7546 40.6055 91.6946 40.6055C91.6346 40.6055 91.5896 40.5755 91.5146 40.5155C90.5546 39.8105 89.5796 39.3155 88.4846 38.8805ZM90.2996 35.3555C90.5546 34.9655 90.8396 34.5455 91.0946 34.1555C91.1996 33.9755 91.2896 33.9455 91.4696 34.0355C92.4296 34.4255 93.4646 34.9805 94.2896 35.7005C94.3796 35.7605 94.4096 35.8355 94.4096 35.8955C94.4096 35.9555 94.3946 36.0155 94.3496 36.0905C94.1396 36.4655 93.8396 36.9455 93.5846 37.2155C93.5396 37.2905 93.4796 37.3055 93.4346 37.3055C93.3596 37.3055 93.2846 37.2605 93.2096 37.2005C92.4296 36.5555 91.2596 35.7905 90.2996 35.3555ZM89.6696 43.9055C90.2996 43.7855 90.8246 43.6205 91.7096 43.1705C93.1346 42.4205 94.3646 41.7155 95.8196 40.5755C97.0196 39.6605 98.6246 38.2205 100.14 36.3905C100.23 37.0505 100.35 37.4255 100.575 38.0705C100.62 38.1755 100.65 38.2655 100.65 38.3555C100.65 38.4755 100.605 38.5805 100.485 38.7005C99.0896 40.2005 98.1446 41.0255 96.6746 42.1655C95.3696 43.1555 93.9746 44.0105 92.1896 44.9855C91.8296 45.1805 91.4696 45.3455 91.3196 45.4955C91.2296 45.5855 91.1546 45.6155 91.0796 45.6155C90.9746 45.6155 90.8696 45.5555 90.7796 45.4355C90.4646 45.1205 90.0596 44.5355 89.6696 43.9055ZM97.1696 34.2455L97.9646 33.6905C98.0396 33.6305 98.0996 33.6455 98.1896 33.7205C98.6546 34.0805 99.1946 34.6805 99.6146 35.3255C99.6746 35.4155 99.6746 35.4905 99.5696 35.5655L98.9396 36.0305C98.8346 36.1055 98.7596 36.0905 98.6846 35.9855C98.2346 35.2955 97.7546 34.7255 97.1696 34.2455ZM98.5496 33.2555L99.2996 32.7155C99.3896 32.6555 99.4346 32.6705 99.5246 32.7455C100.08 33.1655 100.62 33.7655 100.95 34.2905C101.01 34.3805 101.025 34.4705 100.905 34.5605L100.305 35.0255C100.185 35.1155 100.11 35.0705 100.05 34.9805C99.6446 34.3355 99.1646 33.7655 98.5496 33.2555ZM104.745 38.1905C105.255 37.9055 105.615 37.7405 105.93 37.5905C106.095 37.5155 106.2 37.5305 106.32 37.6955C106.845 38.3555 107.325 39.1205 107.61 39.9155C107.64 40.0205 107.67 40.0805 107.67 40.1405C107.67 40.2305 107.61 40.2755 107.49 40.3505C107.13 40.5605 106.875 40.6805 106.53 40.8155C106.32 40.8905 106.23 40.8155 106.155 40.6055C105.81 39.7355 105.345 38.9105 104.745 38.1905ZM107.76 37.4255C108.36 37.1405 108.705 36.9755 108.96 36.8705C109.125 36.7955 109.23 36.8105 109.35 36.9905C109.755 37.5155 110.265 38.4605 110.505 39.1805C110.58 39.4055 110.55 39.4805 110.355 39.5855C110.07 39.7505 109.74 39.9005 109.32 40.0505C109.155 40.1105 109.095 40.0355 109.02 39.8255C108.675 38.9405 108.33 38.2205 107.76 37.4255ZM112.485 37.0655C113.115 37.2605 113.79 37.5305 114.165 37.7855C114.285 37.8755 114.36 37.9505 114.36 38.0405C114.36 38.1305 114.315 38.2055 114.195 38.3105C113.97 38.5055 113.865 38.8055 113.745 39.0755C113.1 40.6055 112.32 41.9705 111.48 43.0655C110.49 44.3255 109.665 45.1205 108.39 45.9605C108.27 46.0505 108.15 46.1255 108.03 46.1255C107.955 46.1255 107.865 46.0955 107.79 46.0205C107.415 45.7205 107.07 45.5555 106.515 45.3905C108.315 44.2055 109.215 43.4405 110.115 42.2705C110.865 41.2955 111.705 39.8255 112.14 38.6555C112.335 38.1005 112.425 37.7705 112.485 37.0655ZM124.53 35.6705L127.23 35.6105C127.62 35.5955 127.815 35.5355 127.98 35.4305C128.04 35.3855 128.1 35.3705 128.175 35.3705C128.25 35.3705 128.325 35.4005 128.415 35.4605C128.79 35.7005 129.135 35.9855 129.435 36.2705C129.57 36.3905 129.63 36.5105 129.63 36.6155C129.63 36.7355 129.555 36.8405 129.45 36.9305C129.24 37.0955 129.09 37.3055 128.955 37.5755C127.95 39.6155 126.99 41.0705 125.985 42.2105C124.695 43.6655 122.91 45.1205 121.425 45.9455C121.335 46.0055 121.26 46.0205 121.185 46.0205C121.065 46.0205 120.96 45.9605 120.84 45.8555C120.465 45.5555 120 45.3305 119.415 45.1655C121.755 43.8755 122.94 42.9305 124.41 41.3405C125.595 40.0205 126.285 39.0005 127.185 37.0805L123.555 37.1855C122.325 38.7005 121.575 39.5555 120.72 40.2605C120.615 40.3655 120.51 40.4255 120.405 40.4255C120.33 40.4255 120.255 40.3955 120.18 40.3355C119.805 40.0655 119.25 39.7955 118.74 39.6905C120.69 38.1005 121.845 36.7055 122.775 35.2355C123.27 34.3955 123.495 33.9305 123.66 33.2105C124.515 33.5105 125.085 33.7655 125.415 34.0055C125.52 34.0805 125.565 34.1705 125.565 34.2605C125.565 34.3505 125.52 34.4405 125.4 34.5155C125.25 34.6055 125.145 34.7705 125.025 34.9205C124.86 35.1755 124.71 35.4005 124.53 35.6705ZM137.19 34.8305H141.315C141.855 34.8305 142.125 34.8155 142.35 34.6955C142.41 34.6505 142.455 34.6355 142.515 34.6355C142.605 34.6355 142.68 34.6955 142.77 34.7555C143.115 35.0255 143.46 35.4155 143.745 35.8055C143.79 35.8805 143.82 35.9405 143.82 36.0005C143.82 36.0905 143.76 36.1955 143.625 36.3005C143.43 36.4655 143.235 36.6905 143.07 36.9605C142.455 38.0105 141.87 38.8505 141.15 39.7655C142.59 40.8305 143.925 42.0005 145.305 43.3955C145.38 43.4705 145.425 43.5455 145.425 43.6055C145.425 43.6655 145.395 43.7405 145.32 43.8305C145.035 44.1755 144.69 44.5355 144.315 44.8505C144.255 44.9105 144.195 44.9405 144.135 44.9405C144.06 44.9405 144 44.8955 143.925 44.8205C142.665 43.3505 141.375 42.1655 140.025 41.1005C138.33 42.8705 136.62 44.1455 134.985 45.0605C134.85 45.1205 134.745 45.1805 134.64 45.1805C134.55 45.1805 134.46 45.1355 134.385 45.0455C134.055 44.6405 133.62 44.3405 133.125 44.0705C135.465 42.8855 136.86 41.8205 138.405 40.2455C139.485 39.1205 140.31 38.0555 141.225 36.4805L137.355 36.4955C136.575 36.4955 135.795 36.5255 134.985 36.5855C134.865 36.6005 134.82 36.4955 134.79 36.3305C134.715 36.0155 134.655 35.2955 134.655 34.7705C135.465 34.8305 136.215 34.8305 137.19 34.8305ZM154.53 35.6705L157.23 35.6105C157.62 35.5955 157.815 35.5355 157.98 35.4305C158.04 35.3855 158.1 35.3705 158.175 35.3705C158.25 35.3705 158.325 35.4005 158.415 35.4605C158.79 35.7005 159.135 35.9855 159.435 36.2705C159.57 36.3905 159.63 36.5105 159.63 36.6155C159.63 36.7355 159.555 36.8405 159.45 36.9305C159.24 37.0955 159.09 37.3055 158.955 37.5755C157.95 39.6155 156.99 41.0705 155.985 42.2105C154.695 43.6655 152.91 45.1205 151.425 45.9455C151.335 46.0055 151.26 46.0205 151.185 46.0205C151.065 46.0205 150.96 45.9605 150.84 45.8555C150.465 45.5555 150 45.3305 149.415 45.1655C151.755 43.8755 152.94 42.9305 154.41 41.3405C155.595 40.0205 156.285 39.0005 157.185 37.0805L153.555 37.1855C152.325 38.7005 151.575 39.5555 150.72 40.2605C150.615 40.3655 150.51 40.4255 150.405 40.4255C150.33 40.4255 150.255 40.3955 150.18 40.3355C149.805 40.0655 149.25 39.7955 148.74 39.6905C150.69 38.1005 151.845 36.7055 152.775 35.2355C153.27 34.3955 153.495 33.9305 153.66 33.2105C154.515 33.5105 155.085 33.7655 155.415 34.0055C155.52 34.0805 155.565 34.1705 155.565 34.2605C155.565 34.3505 155.52 34.4405 155.4 34.5155C155.25 34.6055 155.145 34.7705 155.025 34.9205C154.86 35.1755 154.71 35.4005 154.53 35.6705ZM171.75 40.6205H166.35C164.865 40.6205 164.295 40.8005 164.145 40.8005C163.965 40.8005 163.845 40.7105 163.8 40.4855C163.725 40.1405 163.635 39.4355 163.575 38.6705C164.55 38.8205 165.3 38.8505 166.815 38.8505H171.645C172.785 38.8505 173.94 38.8205 175.095 38.8055C175.32 38.7905 175.365 38.8355 175.365 39.0155C175.395 39.4655 175.395 39.9755 175.365 40.4255C175.365 40.6055 175.305 40.6655 175.095 40.6505C173.97 40.6355 172.86 40.6205 171.75 40.6205ZM186.03 37.0805V42.0905C186.765 41.7005 187.455 41.2355 188.16 40.6955C189.06 40.0055 189.945 39.2105 190.785 38.1455C190.845 38.6705 190.995 39.1655 191.25 39.6605C191.295 39.7655 191.34 39.8405 191.34 39.9155C191.34 40.0205 191.28 40.1255 191.115 40.2905C190.365 41.0555 189.675 41.6705 188.895 42.2555C188.115 42.8555 187.275 43.4405 186.225 44.0555C185.955 44.2355 185.925 44.2655 185.79 44.3705C185.7 44.4455 185.595 44.4905 185.49 44.4905C185.4 44.4905 185.295 44.4455 185.175 44.3705C184.845 44.1455 184.5 43.7555 184.275 43.4555C184.185 43.3205 184.14 43.2305 184.14 43.1405C184.14 43.0655 184.155 43.0055 184.2 42.9155C184.305 42.7205 184.29 42.5405 184.29 41.7755V37.0805C184.29 35.7755 184.29 35.1605 184.14 34.4705C184.74 34.5455 185.565 34.6505 186.015 34.7855C186.21 34.8305 186.285 34.9205 186.285 35.0405C186.285 35.1305 186.24 35.2655 186.165 35.4155C186.03 35.7005 186.03 36.0005 186.03 37.0805ZM180.795 35.4155C181.65 35.5205 182.34 35.6255 182.7 35.7455C182.955 35.8205 182.985 36.0005 182.895 36.2105C182.73 36.5405 182.715 36.8705 182.715 37.2305C182.685 39.1055 182.4 40.5305 181.905 41.6405C181.515 42.5555 180.855 43.5305 179.775 44.4605C179.625 44.5805 179.505 44.6555 179.385 44.6555C179.295 44.6555 179.205 44.6105 179.1 44.5355C178.725 44.2805 178.365 44.1005 177.825 43.9055C178.995 43.0205 179.79 42.1055 180.315 40.9205C180.735 39.9005 180.93 39.0755 180.945 36.6755C180.945 36.1055 180.915 35.8655 180.795 35.4155Z" fill="black"/>
</svg>
