<svg width="209" height="32" viewBox="0 0 209 32" fill="none" xmlns="http://www.w3.org/2000/svg">
<path d="M20.1334 22.2889C19.7654 21.4635 18.8131 21.0187 17.6808 21.1424C16.6012 21.2604 15.6762 21.7177 14.8963 22.458C13.9229 23.3821 13.7785 24.1959 14.3363 25.3985C13.4209 25.7959 12.6604 25.5076 12.0503 24.5835C11.4898 23.735 10.9649 22.8471 10.2967 22.0887C9.92424 21.6658 9.52949 21.2939 7.96211 20.5077C7.88264 20.3831 7.79957 20.2592 7.70942 20.137C7.35618 19.6571 6.98845 19.1761 6.72062 18.6485C6.13313 17.4907 6.46559 16.4728 7.65217 15.9731C8.32808 15.6887 9.09593 15.6291 9.80769 15.4188C10.1339 15.3224 10.5734 15.1848 10.7057 14.9321C11.2146 13.9606 11.62 12.9344 12.1369 11.7633C8.84971 11.6906 6.66786 12.9374 5.63817 16.0665C4.91215 14.0231 5.41902 12.1286 6.98372 10.7721C8.63475 9.34056 10.6505 8.83668 12.744 8.51579C13.1121 8.45915 13.6545 8.32688 13.777 8.06886C15.0042 5.48364 16.16 2.8649 17.362 0.198422C17.0945 0.115975 16.9598 0.0439078 16.8216 0.0359007C13.223 -0.169925 9.82161 0.492619 6.75358 2.45533C1.32985 5.92494 0.190443 11.717 3.94237 16.9479C4.78435 18.1215 5.85286 19.1375 6.85499 20.1898C7.9467 21.336 8.10448 22.4873 7.25746 23.6353C5.76124 22.4728 4.5815 22.4132 2.98237 23.4728C1.70088 24.3219 0.767866 25.4634 0.25746 26.9294C-0.278185 28.4668 0.0362072 29.936 1.06798 30.7128C2.16917 31.5423 3.54555 31.4877 4.91484 30.5016C6.91698 29.0594 8.06471 27.045 8.65669 24.6929C8.77589 24.2193 8.83046 23.7575 8.82692 23.307L8.84205 23.3492C9.35808 23.2098 9.88389 22.9799 11.0204 24.2498C11.2965 24.5586 11.6085 24.8415 11.8801 25.1577C12.6598 26.0655 13.6397 26.5429 14.8378 26.5183C16.5345 26.4839 18.088 26.0174 19.3855 24.8786C20.2728 24.0998 20.5258 23.1697 20.1334 22.2889Z" fill="#CB0000"/>
<path d="M32.1047 11.5301C32.0007 11.2311 31.9227 11.0101 31.7927 10.6851C31.6757 10.3991 31.5587 10.1391 31.3377 9.85311C31.8577 9.76211 32.3907 9.71011 32.9107 9.71011C33.0927 9.71011 33.1967 9.81411 33.1967 9.94411C33.1967 10.0221 33.1707 10.1131 33.1707 10.1911C33.1707 10.3081 33.1967 10.4381 33.2227 10.5811C33.3137 10.9191 33.3527 11.0361 33.4307 11.2571C34.4447 11.0621 35.1597 10.8671 36.0827 10.5681C36.1997 10.5161 36.2647 10.5291 36.3037 10.6331C36.3817 10.8801 36.4727 11.2441 36.5247 11.5041C36.5507 11.6341 36.4597 11.7121 36.3687 11.7381C35.4977 12.0111 34.7047 12.2061 33.8207 12.4011C33.9377 12.7261 34.1067 13.1291 34.2757 13.4931C35.3287 13.2721 36.0177 13.0511 36.6417 12.8171C36.7717 12.7521 36.8367 12.7781 36.8757 12.8951C36.9927 13.1941 37.0447 13.4411 37.1097 13.7531C37.1357 13.8701 37.1357 13.9351 37.0057 13.9871C36.3557 14.2341 35.5367 14.4681 34.8087 14.6241C35.3677 15.5601 35.8747 16.2881 36.5117 16.8731C36.6417 16.9901 36.6417 17.0421 36.5767 17.1851C36.4337 17.4841 36.2517 17.7441 36.0437 17.9911C35.9657 18.0821 35.9137 18.1211 35.8357 18.1211C35.7837 18.1211 35.7317 18.0951 35.6537 18.0431C35.4457 17.8741 35.1857 17.7571 34.8867 17.6271C34.2237 17.3411 33.3657 17.2111 32.4427 17.2111C31.2207 17.2111 30.5057 17.5881 30.5057 18.1991C30.5057 19.0441 31.6107 19.3171 33.5997 19.3171C34.0807 19.3171 34.5617 19.2651 35.0297 19.2391C35.1597 19.2391 35.1987 19.3041 35.1857 19.4081C35.1337 19.7331 35.0427 20.2401 34.9257 20.5911C34.8867 20.7211 34.8347 20.7731 34.6527 20.7861C34.3537 20.8121 34.0417 20.8251 33.7167 20.8251C30.7267 20.8251 29.1407 19.9801 29.1407 18.3811C29.1407 16.9901 30.3367 16.1191 32.3647 16.1191C33.3137 16.1191 34.0807 16.2231 34.6007 16.4441C34.3017 16.0931 33.8727 15.4691 33.5217 14.9101C32.1827 15.1181 30.9087 15.2741 29.9597 15.3001C29.8167 15.3001 29.7647 15.2481 29.7257 15.1181C29.6477 14.8581 29.5307 14.4161 29.4917 14.0521C30.7917 14.0261 31.8317 13.9221 32.9887 13.7271C32.8587 13.4541 32.6637 13.0121 32.4947 12.6481C31.2987 12.8301 30.3367 12.9471 29.3357 12.9601C29.1797 12.9601 29.1017 12.9081 29.0757 12.7781C29.0367 12.6351 28.9457 12.1541 28.8677 11.7381C30.1417 11.7511 31.1817 11.6471 32.1047 11.5301ZM45.3387 12.0371C45.8457 11.9461 46.5477 11.7771 47.1847 11.5951C47.3277 11.5561 47.3797 11.6211 47.3927 11.7251C47.4317 12.0111 47.4707 12.3881 47.4837 12.6611C47.4967 12.8301 47.4577 12.8691 47.2887 12.9081C46.4827 13.1291 45.8197 13.2721 45.0267 13.4021C44.1427 16.2881 43.4797 18.2771 42.6477 20.4351C42.5827 20.6171 42.5047 20.6041 42.3617 20.5651C42.2317 20.5131 41.5947 20.2401 41.3217 20.0841C41.2177 20.0191 41.1787 19.9151 41.2177 19.8241C42.2057 17.5491 42.8297 15.8331 43.4667 13.6621C42.7127 13.7401 41.8027 13.8051 41.1917 13.8051C40.9967 13.8051 40.9447 13.7661 40.9187 13.5971C40.8667 13.3241 40.8017 12.8821 40.7367 12.4141C41.0097 12.4531 41.1657 12.4531 41.6987 12.4531C42.3487 12.4531 43.0507 12.4141 43.8047 12.3231C43.9347 11.8031 44.0387 11.2311 44.1297 10.6981C44.1817 10.3081 44.2077 9.91811 44.2077 9.50211C44.8967 9.60611 45.4297 9.69711 45.8457 9.86611C45.9497 9.90511 45.9887 9.99611 45.9887 10.0741C45.9887 10.1261 45.9887 10.1911 45.9237 10.2821C45.8197 10.4641 45.7157 10.5941 45.6507 10.8021C45.5207 11.2701 45.4297 11.7121 45.3387 12.0371ZM45.5727 18.0041C45.9757 17.9001 46.5087 17.8091 46.6777 17.8091C46.8077 17.8091 46.8597 17.8611 46.8727 17.9911C46.9767 18.9401 47.6137 19.2131 48.8617 19.2131C49.5897 19.2131 50.5257 19.0961 51.0457 19.0311C51.1497 19.0181 51.1887 19.0441 51.2017 19.1481C51.2537 19.4861 51.3057 19.9281 51.3057 20.2791C51.3187 20.4351 51.3057 20.4741 51.0977 20.4871C50.6557 20.5521 49.8107 20.6301 49.3297 20.6301C47.6267 20.6301 46.7427 20.3961 46.1577 19.7851C45.7417 19.3691 45.5987 18.7581 45.5727 18.0041ZM46.5867 15.5471C46.5607 15.0921 46.5347 14.6241 46.5347 14.3641C46.5347 14.1821 46.5737 14.1431 46.7687 14.1041C47.5877 13.9351 48.5497 13.8051 49.3037 13.8051C49.8107 13.8051 50.3697 13.8571 50.8247 13.9351C51.0067 13.9611 51.0457 13.9741 51.0457 14.1301C51.0717 14.4551 51.0717 14.8191 51.0587 15.1701C51.0587 15.3911 50.9937 15.4431 50.8117 15.4041C50.3567 15.3131 49.7587 15.2481 49.1997 15.2481C48.4197 15.2481 47.4317 15.3781 46.5867 15.5471ZM56.4147 11.8031V10.6461C56.4147 10.3081 56.3757 9.93111 56.2587 9.58011C56.9217 9.63211 57.4417 9.69711 57.8057 9.80111C57.9747 9.84011 58.0787 9.91811 58.0787 10.0221C58.0787 10.1001 58.0527 10.1781 57.9747 10.3211C57.9097 10.4511 57.8837 10.5811 57.8707 10.7631C57.8577 11.0101 57.8577 11.2181 57.8447 11.6341C58.4427 11.5431 59.0017 11.4391 59.6387 11.2831C59.8597 11.2311 59.8727 11.2701 59.8857 11.4391C59.9247 11.7641 59.9507 12.0631 59.9507 12.3751C59.9507 12.5311 59.8987 12.5571 59.7947 12.5831C59.2097 12.7261 58.5857 12.8301 57.7797 12.9341C57.7407 13.8701 57.7277 14.3641 57.7017 15.2741C57.7797 15.5081 57.8187 15.7811 57.8187 16.1451C57.8187 16.8211 57.6367 17.4191 57.1947 17.8351C57.0517 18.1081 57.0127 18.3681 57.0127 18.6151C57.0127 19.1221 57.2727 19.4601 58.7157 19.4601C60.6917 19.4601 61.7057 18.9661 61.7057 17.9261C61.7057 17.4191 61.6537 16.9381 61.4327 16.2101C62.0047 16.4701 62.3947 16.5351 62.7457 16.5871C62.8627 16.6001 62.9797 16.7041 63.0057 16.8211C63.1097 17.1721 63.2007 17.6531 63.2007 18.2511C63.2007 19.8891 61.8877 20.8121 58.8977 20.8121C56.5967 20.8121 55.6087 20.2271 55.6087 18.9661C55.6087 18.5891 55.6607 18.3551 55.7387 18.1081C55.6867 18.1211 55.6087 18.1211 55.5307 18.1211C54.6337 18.1211 53.9707 17.2761 53.9707 16.2491C53.9707 15.0921 54.7377 14.2081 55.6997 14.2081C56.0117 14.2081 56.2067 14.2471 56.3887 14.3121C56.4017 13.8831 56.4147 13.4801 56.4147 13.0511C55.5957 13.0901 54.8807 13.0901 54.2437 13.0771C54.1267 13.0771 54.0877 13.0251 54.0747 12.8821C54.0357 12.6221 53.9967 12.2451 53.9577 11.7901C54.7767 11.8551 55.4007 11.8421 56.4147 11.8031ZM55.8037 15.2741C55.3357 15.2741 55.0887 15.6381 55.0887 16.1581C55.0887 16.7041 55.3617 17.0291 55.8427 17.0161C56.2457 17.0031 56.5187 16.6391 56.5057 16.0671C56.5057 15.5861 56.2457 15.2741 55.8037 15.2741ZM61.2507 13.0121C61.5757 12.6351 61.9007 12.2841 62.0827 12.1021C62.1867 11.9981 62.2387 11.9981 62.3557 12.0501C63.2657 12.4531 64.2537 13.2201 64.8127 13.8311C64.8647 13.8831 64.8777 13.9221 64.8777 13.9611C64.8777 14.0001 64.8517 14.0521 64.8127 14.1041C64.5787 14.4421 64.3317 14.7411 64.0717 15.0011C64.0197 15.0531 63.9807 15.0791 63.9287 15.0791C63.8897 15.0791 63.8377 15.0401 63.7857 14.9751C63.1877 14.2601 62.3037 13.5321 61.2507 13.0121ZM69.4797 10.5941C69.7917 10.1261 70.0387 9.78811 70.2467 9.58011C70.3117 9.51511 70.3897 9.47611 70.4937 9.51511C71.4557 9.89211 72.2617 10.3861 73.0417 11.0621C73.1067 11.1141 73.1327 11.1531 73.1327 11.2051C73.1327 11.2441 73.1067 11.2961 73.0677 11.3611C72.8987 11.6341 72.6257 12.0111 72.4047 12.2711C72.3527 12.3361 72.3007 12.3751 72.2617 12.3751C72.2097 12.3751 72.1707 12.3491 72.1057 12.2841C71.3777 11.6471 70.5067 11.0491 69.4797 10.5941ZM68.5697 12.4011C69.0767 12.5441 69.6227 12.7001 69.9217 12.8691C70.0647 12.9341 70.1297 13.0121 70.1297 13.1161C70.1297 13.1811 70.1037 13.2461 70.0647 13.3111C69.9477 13.5191 69.8567 13.7531 69.8047 14.0001C69.6747 14.6631 69.5447 15.6251 69.4927 16.3661C70.6887 15.1571 72.2487 14.3121 73.8347 14.3121C75.7327 14.3121 76.8637 15.4171 76.8637 17.0941C76.8637 18.5111 76.0187 19.4471 74.9007 20.0061C74.0297 20.4481 72.6907 20.7601 71.5727 20.9031C71.2867 20.9421 71.1697 20.9291 71.0527 20.7341C70.8057 20.2921 70.5717 19.9411 70.1687 19.6291C71.6247 19.5381 72.8727 19.2911 73.7437 18.9011C74.7967 18.4461 75.2777 17.7701 75.2777 16.9381C75.2777 16.2361 74.8357 15.5991 73.7177 15.5991C72.5737 15.5991 71.1957 16.3401 69.9737 17.5751C69.7397 17.8091 69.5707 18.0301 69.4147 18.2901C69.3367 18.4201 69.2847 18.4201 69.1157 18.3811C68.8167 18.2771 68.5047 18.1601 68.2317 18.0301C68.1017 17.9781 68.0497 17.9521 68.0497 17.7701C68.1277 16.2621 68.2967 14.7281 68.4527 13.5711C68.5047 13.1811 68.5697 12.8431 68.5697 12.4011ZM82.5447 11.2701C82.7007 10.8931 82.9867 10.2301 83.0907 10.0221C83.1947 9.81411 83.2597 9.81411 83.4417 9.85311C84.8197 10.1131 86.7827 10.6461 88.0697 11.2181C88.2777 11.3091 88.3037 11.3741 88.2257 11.5431C88.1347 11.8551 87.9007 12.3881 87.7707 12.6741C87.7057 12.8301 87.5887 12.8301 87.4587 12.7651C85.9377 12.0761 84.2087 11.5691 82.5447 11.2701ZM81.6737 14.6501C81.8817 14.1301 82.1027 13.6491 82.2327 13.4151C82.2977 13.2721 82.3757 13.2331 82.5707 13.2851C83.9487 13.5841 85.4437 14.0391 86.5357 14.5461C86.7437 14.6371 86.7697 14.7281 86.7047 14.9231C86.6267 15.1701 86.4057 15.6771 86.2757 15.9241C86.2107 16.0411 86.1587 16.0931 86.0937 16.0931C86.0417 16.0931 85.9897 16.0801 85.9247 16.0411C84.5337 15.3781 83.1557 14.9751 81.6737 14.6501ZM81.4657 18.5111C81.6347 18.1081 81.8947 17.5881 82.0637 17.2891C82.1287 17.1721 82.2067 17.0941 82.4277 17.1331C84.4037 17.4321 86.5747 18.1471 88.6547 19.1611C88.7977 19.2261 88.8757 19.3301 88.7847 19.5121C88.6287 19.8891 88.4467 20.2531 88.2647 20.5781C88.1997 20.6821 88.1477 20.7341 88.0697 20.7341C88.0177 20.7341 87.9527 20.7081 87.8877 20.6691C85.7817 19.6031 83.7147 18.9401 81.4657 18.5111ZM100.069 18.4851H100.68C101.2 18.4851 101.772 18.4721 102.266 18.4721C102.487 18.4591 102.539 18.4981 102.552 18.7061C102.565 18.9531 102.565 19.2781 102.552 19.5251C102.539 19.7721 102.5 19.7851 102.305 19.7851C101.72 19.7851 101.096 19.7721 100.498 19.7721H95.7137C95.1807 19.7721 94.6737 19.7721 94.0367 19.7981C93.8937 19.7981 93.8417 19.7331 93.8157 19.5381C93.7637 19.2651 93.7507 18.8491 93.7507 18.4461C94.4917 18.4981 94.9727 18.4981 95.6227 18.4981H98.6387L99.0807 15.3391H96.9877C96.4807 15.3391 95.8957 15.3651 95.5577 15.3781C95.4017 15.3911 95.3497 15.3521 95.3237 15.1311C95.2847 14.8581 95.2587 14.4421 95.2327 14.0131C96.1037 14.0521 96.4937 14.0781 97.0397 14.0781H98.8337C99.3017 14.0781 99.4187 14.0391 99.6007 13.9611C99.6527 13.9221 99.7047 13.9091 99.7437 13.9091C99.8087 13.9091 99.8737 13.9481 99.9387 13.9871C100.173 14.1561 100.524 14.4421 100.732 14.7021C100.81 14.7801 100.849 14.8581 100.849 14.9361C100.849 15.0141 100.81 15.0921 100.732 15.1701C100.563 15.3521 100.524 15.4951 100.472 15.8201L100.069 18.4851ZM113.082 16.1451H108.402C107.115 16.1451 106.621 16.3011 106.491 16.3011C106.335 16.3011 106.231 16.2231 106.192 16.0281C106.127 15.7291 106.049 15.1181 105.997 14.4551C106.842 14.5851 107.492 14.6111 108.805 14.6111H112.991C113.979 14.6111 114.98 14.5851 115.981 14.5721C116.176 14.5591 116.215 14.5981 116.215 14.7541C116.241 15.1441 116.241 15.5861 116.215 15.9761C116.215 16.1321 116.163 16.1841 115.981 16.1711C115.006 16.1581 114.044 16.1451 113.082 16.1451ZM118.919 14.6371C119.244 14.1171 119.452 13.7401 119.608 13.5321C119.673 13.4411 119.738 13.3761 119.855 13.4021C120.83 13.7271 121.61 14.1431 122.351 14.6761C122.442 14.7411 122.494 14.7931 122.494 14.8711C122.494 14.9101 122.468 14.9621 122.442 15.0141C122.299 15.3651 122.078 15.7031 121.87 16.0021C121.805 16.0801 121.753 16.1321 121.701 16.1321C121.649 16.1321 121.61 16.1061 121.545 16.0541C120.713 15.4431 119.868 15.0141 118.919 14.6371ZM120.492 11.5821C120.713 11.2441 120.96 10.8801 121.181 10.5421C121.272 10.3861 121.35 10.3601 121.506 10.4381C122.338 10.7761 123.235 11.2571 123.95 11.8811C124.028 11.9331 124.054 11.9981 124.054 12.0501C124.054 12.1021 124.041 12.1541 124.002 12.2191C123.82 12.5441 123.56 12.9601 123.339 13.1941C123.3 13.2591 123.248 13.2721 123.209 13.2721C123.144 13.2721 123.079 13.2331 123.014 13.1811C122.338 12.6221 121.324 11.9591 120.492 11.5821ZM119.946 18.9921C120.492 18.8881 120.947 18.7451 121.714 18.3551C122.949 17.7051 124.015 17.0941 125.276 16.1061C126.316 15.3131 127.707 14.0651 129.02 12.4791C129.098 13.0511 129.202 13.3761 129.397 13.9351C129.436 14.0261 129.462 14.1041 129.462 14.1821C129.462 14.2861 129.423 14.3771 129.319 14.4811C128.11 15.7811 127.291 16.4961 126.017 17.4841C124.886 18.3421 123.677 19.0831 122.13 19.9281C121.818 20.0971 121.506 20.2401 121.376 20.3701C121.298 20.4481 121.233 20.4741 121.168 20.4741C121.077 20.4741 120.986 20.4221 120.908 20.3181C120.635 20.0451 120.284 19.5381 119.946 18.9921ZM126.446 10.6201L127.135 10.1391C127.2 10.0871 127.252 10.1001 127.33 10.1651C127.733 10.4771 128.201 10.9971 128.565 11.5561C128.617 11.6341 128.617 11.6991 128.526 11.7641L127.98 12.1671C127.889 12.2321 127.824 12.2191 127.759 12.1281C127.369 11.5301 126.953 11.0361 126.446 10.6201ZM127.642 9.76211L128.292 9.29411C128.37 9.24211 128.409 9.25511 128.487 9.32011C128.968 9.68411 129.436 10.2041 129.722 10.6591C129.774 10.7371 129.787 10.8151 129.683 10.8931L129.163 11.2961C129.059 11.3741 128.994 11.3351 128.942 11.2571C128.591 10.6981 128.175 10.2041 127.642 9.76211ZM133.011 14.0391C133.453 13.7921 133.765 13.6491 134.038 13.5191C134.181 13.4541 134.272 13.4671 134.376 13.6101C134.831 14.1821 135.247 14.8451 135.494 15.5341C135.52 15.6251 135.546 15.6771 135.546 15.7291C135.546 15.8071 135.494 15.8461 135.39 15.9111C135.078 16.0931 134.857 16.1971 134.558 16.3141C134.376 16.3791 134.298 16.3141 134.233 16.1321C133.934 15.3781 133.531 14.6631 133.011 14.0391ZM135.624 13.3761C136.144 13.1291 136.443 12.9861 136.664 12.8951C136.807 12.8301 136.898 12.8431 137.002 12.9991C137.353 13.4541 137.795 14.2731 138.003 14.8971C138.068 15.0921 138.042 15.1571 137.873 15.2481C137.626 15.3911 137.34 15.5211 136.976 15.6511C136.833 15.7031 136.781 15.6381 136.716 15.4561C136.417 14.6891 136.118 14.0651 135.624 13.3761ZM139.719 13.0641C140.265 13.2331 140.85 13.4671 141.175 13.6881C141.279 13.7661 141.344 13.8311 141.344 13.9091C141.344 13.9871 141.305 14.0521 141.201 14.1431C141.006 14.3121 140.915 14.5721 140.811 14.8061C140.252 16.1321 139.576 17.3151 138.848 18.2641C137.99 19.3561 137.275 20.0451 136.17 20.7731C136.066 20.8511 135.962 20.9161 135.858 20.9161C135.793 20.9161 135.715 20.8901 135.65 20.8251C135.325 20.5651 135.026 20.4221 134.545 20.2791C136.105 19.2521 136.885 18.5891 137.665 17.5751C138.315 16.7301 139.043 15.4561 139.42 14.4421C139.589 13.9611 139.667 13.6751 139.719 13.0641ZM150.158 11.8551L152.498 11.8031C152.836 11.7901 153.005 11.7381 153.148 11.6471C153.2 11.6081 153.252 11.5951 153.317 11.5951C153.382 11.5951 153.447 11.6211 153.525 11.6731C153.85 11.8811 154.149 12.1281 154.409 12.3751C154.526 12.4791 154.578 12.5831 154.578 12.6741C154.578 12.7781 154.513 12.8691 154.422 12.9471C154.24 13.0901 154.11 13.2721 153.993 13.5061C153.122 15.2741 152.29 16.5351 151.419 17.5231C150.301 18.7841 148.754 20.0451 147.467 20.7601C147.389 20.8121 147.324 20.8251 147.259 20.8251C147.155 20.8251 147.064 20.7731 146.96 20.6821C146.635 20.4221 146.232 20.2271 145.725 20.0841C147.753 18.9661 148.78 18.1471 150.054 16.7691C151.081 15.6251 151.679 14.7411 152.459 13.0771L149.313 13.1681C148.247 14.4811 147.597 15.2221 146.856 15.8331C146.765 15.9241 146.674 15.9761 146.583 15.9761C146.518 15.9761 146.453 15.9501 146.388 15.8981C146.063 15.6641 145.582 15.4301 145.14 15.3391C146.83 13.9611 147.831 12.7521 148.637 11.4781C149.066 10.7501 149.261 10.3471 149.404 9.72311C150.145 9.98311 150.639 10.2041 150.925 10.4121C151.016 10.4771 151.055 10.5551 151.055 10.6331C151.055 10.7111 151.016 10.7891 150.912 10.8541C150.782 10.9321 150.691 11.0751 150.587 11.2051C150.444 11.4261 150.314 11.6211 150.158 11.8551ZM161.13 11.1271H164.705C165.173 11.1271 165.407 11.1141 165.602 11.0101C165.654 10.9711 165.693 10.9581 165.745 10.9581C165.823 10.9581 165.888 11.0101 165.966 11.0621C166.265 11.2961 166.564 11.6341 166.811 11.9721C166.85 12.0371 166.876 12.0891 166.876 12.1411C166.876 12.2191 166.824 12.3101 166.707 12.4011C166.538 12.5441 166.369 12.7391 166.226 12.9731C165.693 13.8831 165.186 14.6111 164.562 15.4041C165.81 16.3271 166.967 17.3411 168.163 18.5501C168.228 18.6151 168.267 18.6801 168.267 18.7321C168.267 18.7841 168.241 18.8491 168.176 18.9271C167.929 19.2261 167.63 19.5381 167.305 19.8111C167.253 19.8631 167.201 19.8891 167.149 19.8891C167.084 19.8891 167.032 19.8501 166.967 19.7851C165.875 18.5111 164.757 17.4841 163.587 16.5611C162.118 18.0951 160.636 19.2001 159.219 19.9931C159.102 20.0451 159.011 20.0971 158.92 20.0971C158.842 20.0971 158.764 20.0581 158.699 19.9801C158.413 19.6291 158.036 19.3691 157.607 19.1351C159.635 18.1081 160.844 17.1851 162.183 15.8201C163.119 14.8451 163.834 13.9221 164.627 12.5571L161.273 12.5701C160.597 12.5701 159.921 12.5961 159.219 12.6481C159.115 12.6611 159.076 12.5701 159.05 12.4271C158.985 12.1541 158.933 11.5301 158.933 11.0751C159.635 11.1271 160.285 11.1271 161.13 11.1271ZM176.158 11.8551L178.498 11.8031C178.836 11.7901 179.005 11.7381 179.148 11.6471C179.2 11.6081 179.252 11.5951 179.317 11.5951C179.382 11.5951 179.447 11.6211 179.525 11.6731C179.85 11.8811 180.149 12.1281 180.409 12.3751C180.526 12.4791 180.578 12.5831 180.578 12.6741C180.578 12.7781 180.513 12.8691 180.422 12.9471C180.24 13.0901 180.11 13.2721 179.993 13.5061C179.122 15.2741 178.29 16.5351 177.419 17.5231C176.301 18.7841 174.754 20.0451 173.467 20.7601C173.389 20.8121 173.324 20.8251 173.259 20.8251C173.155 20.8251 173.064 20.7731 172.96 20.6821C172.635 20.4221 172.232 20.2271 171.725 20.0841C173.753 18.9661 174.78 18.1471 176.054 16.7691C177.081 15.6251 177.679 14.7411 178.459 13.0771L175.313 13.1681C174.247 14.4811 173.597 15.2221 172.856 15.8331C172.765 15.9241 172.674 15.9761 172.583 15.9761C172.518 15.9761 172.453 15.9501 172.388 15.8981C172.063 15.6641 171.582 15.4301 171.14 15.3391C172.83 13.9611 173.831 12.7521 174.637 11.4781C175.066 10.7501 175.261 10.3471 175.404 9.72311C176.145 9.98311 176.639 10.2041 176.925 10.4121C177.016 10.4771 177.055 10.5551 177.055 10.6331C177.055 10.7111 177.016 10.7891 176.912 10.8541C176.782 10.9321 176.691 11.0751 176.587 11.2051C176.444 11.4261 176.314 11.6211 176.158 11.8551ZM191.082 16.1451H186.402C185.115 16.1451 184.621 16.3011 184.491 16.3011C184.335 16.3011 184.231 16.2231 184.192 16.0281C184.127 15.7291 184.049 15.1181 183.997 14.4551C184.842 14.5851 185.492 14.6111 186.805 14.6111H190.991C191.979 14.6111 192.98 14.5851 193.981 14.5721C194.176 14.5591 194.215 14.5981 194.215 14.7541C194.241 15.1441 194.241 15.5861 194.215 15.9761C194.215 16.1321 194.163 16.1841 193.981 16.1711C193.006 16.1581 192.044 16.1451 191.082 16.1451ZM203.458 13.0771V17.4191C204.095 17.0811 204.693 16.6781 205.304 16.2101C206.084 15.6121 206.851 14.9231 207.579 14.0001C207.631 14.4551 207.761 14.8841 207.982 15.3131C208.021 15.4041 208.06 15.4691 208.06 15.5341C208.06 15.6251 208.008 15.7161 207.865 15.8591C207.215 16.5221 206.617 17.0551 205.941 17.5621C205.265 18.0821 204.537 18.5891 203.627 19.1221C203.393 19.2781 203.367 19.3041 203.25 19.3951C203.172 19.4601 203.081 19.4991 202.99 19.4991C202.912 19.4991 202.821 19.4601 202.717 19.3951C202.431 19.2001 202.132 18.8621 201.937 18.6021C201.859 18.4851 201.82 18.4071 201.82 18.3291C201.82 18.2641 201.833 18.2121 201.872 18.1341C201.963 17.9651 201.95 17.8091 201.95 17.1461V13.0771C201.95 11.9461 201.95 11.4131 201.82 10.8151C202.34 10.8801 203.055 10.9711 203.445 11.0881C203.614 11.1271 203.679 11.2051 203.679 11.3091C203.679 11.3871 203.64 11.5041 203.575 11.6341C203.458 11.8811 203.458 12.1411 203.458 13.0771ZM198.921 11.6341C199.662 11.7251 200.26 11.8161 200.572 11.9201C200.793 11.9851 200.819 12.1411 200.741 12.3231C200.598 12.6091 200.585 12.8951 200.585 13.2071C200.559 14.8321 200.312 16.0671 199.883 17.0291C199.545 17.8221 198.973 18.6671 198.037 19.4731C197.907 19.5771 197.803 19.6421 197.699 19.6421C197.621 19.6421 197.543 19.6031 197.452 19.5381C197.127 19.3171 196.815 19.1611 196.347 18.9921C197.361 18.2251 198.05 17.4321 198.505 16.4051C198.869 15.5211 199.038 14.8061 199.051 12.7261C199.051 12.2321 199.025 12.0241 198.921 11.6341Z" fill="black"/>
</svg>
